#N canvas 247 385 927 455 10;
#X obj 385 29 netreceive -u -b 1122;
#X obj 385 55 oscparse;
#X obj 385 91 list trim;
#X obj 610 205 print none;
#X obj 491 56 loadbang;
#X msg 491 82 1;
#X obj 491 109 makefilename %d;
#X obj 384 135 route symbolnumber;
#X obj 375 186 route fader1 fader2 fader3 fader4;
#X obj 390 272 print f1;
#X obj 400 230 print f2;
#X obj 494 265 print f3;
#X obj 504 229 print f4;
#X obj 323 357 osc~;
#X obj 322 324 * 880;
#X obj 323 391 dac~;
#X text 525 85 How come I can't put multiple of these here?;
#X obj 687 273 list 1 2 3 dog;
#X obj 725 358 print;
#X obj 734 206 bng 15 250 50 0 empty empty empty 17 7 0 10 -262144
-1 -1;
#X obj 717 318 list split 3;
#X obj 226 132 loadbang;
#X obj 226 185 makefilename %d;
#X obj 119 211 route symbolnumber;
#X msg 226 158 2;
#X obj 166 317 print page2;
#X connect 0 0 1 0;
#X connect 1 0 2 0;
#X connect 2 0 7 0;
#X connect 2 0 23 0;
#X connect 4 0 5 0;
#X connect 5 0 6 0;
#X connect 6 0 7 1;
#X connect 7 0 8 0;
#X connect 8 0 9 0;
#X connect 8 0 14 0;
#X connect 8 1 10 0;
#X connect 8 2 11 0;
#X connect 8 3 12 0;
#X connect 8 4 3 0;
#X connect 13 0 15 0;
#X connect 14 0 13 0;
#X connect 17 0 20 0;
#X connect 19 0 17 0;
#X connect 20 0 18 0;
#X connect 21 0 24 0;
#X connect 22 0 23 1;
#X connect 23 0 25 0;
#X connect 24 0 22 0;
