#N canvas 49 116 450 300 10;
#X obj 53 28 inlet;
#X obj 53 100 route symbolnumber;
#X obj 53 126 route \$2;
#X obj 53 216 outlet;
#X obj 158 74 makefilename %d;
#X obj 158 25 loadbang;
#X obj 158 47 \$1;
#X obj 53 163 pack;
#X obj 139 125 loadbang;
#X msg 139 146 25;
#X text 119 163 ms of smoothing;
#X obj 53 188 line 0 2;
#X connect 0 0 1 0;
#X connect 1 0 2 0;
#X connect 2 0 7 0;
#X connect 4 0 1 1;
#X connect 5 0 6 0;
#X connect 6 0 4 0;
#X connect 7 0 11 0;
#X connect 8 0 9 0;
#X connect 9 0 7 1;
#X connect 11 0 3 0;
