#N canvas 757 67 620 546 10;
#X obj 228 13 oscinput;
#X obj 280 44 oscfilter 1 fader1;
#X obj 19 336 *~;
#X obj 9 376 dac~;
#X obj 19 13 adc~;
#X obj 281 93 oscfilter 1 fader2;
#X obj 293 188 oscfilter 1 fader3;
#X obj 293 141 oscfilter 1 fader4;
#X floatatom 407 158 5 0 0 0 - - -, f 5;
#X floatatom 382 222 5 0 0 0 - - -, f 5;
#X obj 327 205 * 100;
#N canvas 167 126 450 300 overdrive 0;
#X obj 203 67 inlet;
#X text 204 47 clip level;
#X text 139 47 signal;
#X obj 140 67 inlet~;
#X obj 146 237 outlet~;
#X obj 163 156 clip~;
#X obj 166 108 * -1;
#X connect 0 0 5 2;
#X connect 0 0 6 0;
#X connect 3 0 5 0;
#X connect 5 0 4 0;
#X connect 6 0 5 1;
#X restore 19 276 pd overdrive;
#X obj 392 61 send volume;
#X obj 34 310 receive volume;
#X floatatom 352 61 5 0 0 0 - - -, f 5;
#X obj 393 110 send overdrive-level;
#X obj 88 249 receive overdrive-level;
#X floatatom 352 110 5 0 0 0 - - -, f 5;
#X obj 426 222 send delay-length;
#X obj 445 158 send delay-feedback;
#N canvas 132 200 450 300 delay-line 0;
#X obj 71 82 inlet~;
#X text 69 62 signal;
#X obj 160 81 inlet;
#X text 153 64 length (ms);
#X obj 256 83 inlet;
#X text 249 66 feedback;
#X obj 257 202 *~;
#X obj 53 247 delwrite~ \$0-delay-line 500;
#X obj 121 139 delread~ \$0-delay-line;
#X obj 92 184 outlet~;
#X obj 52 137 *~;
#X connect 0 0 9 0;
#X connect 0 0 10 0;
#X connect 2 0 8 0;
#X connect 4 0 6 1;
#X connect 4 0 10 1;
#X connect 6 0 7 0;
#X connect 8 0 6 0;
#X connect 8 0 9 0;
#X connect 10 0 7 0;
#X restore 19 184 pd delay-line;
#X obj 104 136 receive delay-feedback;
#X obj 71 108 receive delay-length;
#X connect 0 0 1 0;
#X connect 0 0 5 0;
#X connect 0 0 6 0;
#X connect 0 0 7 0;
#X connect 1 0 12 0;
#X connect 1 0 14 0;
#X connect 2 0 3 0;
#X connect 2 0 3 1;
#X connect 4 0 20 0;
#X connect 5 0 15 0;
#X connect 5 0 17 0;
#X connect 6 0 10 0;
#X connect 7 0 8 0;
#X connect 7 0 19 0;
#X connect 10 0 9 0;
#X connect 10 0 18 0;
#X connect 11 0 2 0;
#X connect 13 0 2 1;
#X connect 16 0 11 1;
#X connect 20 0 11 0;
#X connect 21 0 20 2;
#X connect 22 0 20 1;
