#N canvas 270 163 333 403 10;
#X msg 246 45 0;
#X obj 141 104 phasor~;
#X obj 204 103 phasor~;
#X obj 158 64 * -1;
#X text 115 21 freq;
#X obj 143 127 *~ 2;
#X obj 140 161 -~ 1;
#X obj 204 134 *~ 2;
#X obj 204 162 -~ 1;
#X obj 128 188 clip~ 0 1;
#X obj 200 188 clip~ 0 1;
#X obj 182 225 +~;
#X obj 228 259 *~ 2;
#X obj 228 287 -~ 1;
#X obj 221 342 outlet~;
#X obj 48 11 loadbang;
#X obj 110 42 f \$1;
#X connect 0 0 1 1;
#X connect 0 0 2 1;
#X connect 1 0 5 0;
#X connect 2 0 7 0;
#X connect 3 0 2 0;
#X connect 5 0 6 0;
#X connect 6 0 9 0;
#X connect 7 0 8 0;
#X connect 8 0 10 0;
#X connect 9 0 11 0;
#X connect 10 0 11 1;
#X connect 11 0 12 0;
#X connect 12 0 13 0;
#X connect 13 0 14 0;
#X connect 15 0 16 0;
#X connect 16 0 1 0;
#X connect 16 0 3 0;
