#N canvas 757 67 620 546 10;
#X obj 228 13 oscinput;
#X obj 280 44 oscfilter 1 fader1;
#X obj 19 473 *~;
#X obj 9 513 dac~;
#X obj 19 13 adc~;
#X obj 392 61 send volume;
#X obj 34 447 receive volume;
#X floatatom 352 61 5 0 0 0 - - -, f 5;
#N canvas 193 103 450 300 vibrato 1;
#X obj 81 35 inlet~;
#X obj 85 261 outlet~;
#X obj 81 55 delwrite~ \$0-vibline 500;
#X obj 85 238 delread4~ \$0-vibline 0;
#X obj 182 129 osc~ 10;
#X obj 183 154 +~ 1;
#X obj 158 191 *~ 1.02;
#X connect 0 0 2 0;
#X connect 3 0 1 0;
#X connect 4 0 5 0;
#X connect 5 0 6 0;
#X connect 6 0 3 0;
#X restore 19 297 pd vibrato;
#X connect 0 0 1 0;
#X connect 1 0 5 0;
#X connect 1 0 7 0;
#X connect 2 0 3 0;
#X connect 2 0 3 1;
#X connect 4 0 8 0;
#X connect 6 0 2 1;
#X connect 8 0 2 0;
